<svg xmlns="http://www.w3.org/2000/svg" width="320" height="107" viewBox="0 0 320 107">
  <style>.a{clip-path:url(#SVGID_2_);fill:#272739;}</style>
  <defs>
    <rect x="-57.3" y="-147.2" width="406" height="406"></rect>
  </defs>
  <path d="M309 9h-8.2c-1 0-1.9 0.4-2.6 1.1l-14.8 14.8 -14.8-14.8c-0.7-0.7-1.6-1.1-2.6-1.1h-6.8c-2.4 0-4.3 1.9-4.3 4.3v41.9c0 2.4 1.9 4.3 4.3 4.3h8.1c2.4 0 4.3-1.9 4.3-4.3V38.8l11.9-11.9 11.9 11.9v16.4c0 2.4 1.9 4.3 4.3 4.3h9.5c2.4 0 4.3-1.9 4.3-4.3V13.3C313.4 10.9 311.4 9 309 9" style="clip-path:url(#SVGID_2_);fill:#00E5B9"></path>
  <path d="M88.6 37.1c3.3 3.5 5 8.3 5 14.3v32.2H76.8V56.2c0-2.9-0.8-5.2-2.3-6.9 -1.5-1.7-3.6-2.5-6.1-2.5 -3 0.1-5.3 1.2-7 3.3 -1.7 2.1-2.6 4.9-2.6 8.3v25.2H42V56.2c0-2.9-0.8-5.2-2.3-6.9 -1.5-1.7-3.6-2.5-6.1-2.5 -3 0.1-5.3 1.2-7.1 3.3 -1.8 2.1-2.6 4.9-2.6 8.3v25.2H7.1V32.5h16.7v8.4c1.8-3 4-5.2 6.8-6.8 2.8-1.5 6.1-2.3 9.8-2.3 4.2 0 7.7 1 10.7 3 3 2 5.1 4.8 6.3 8.4 1.6-3.8 4-6.6 7-8.6 3.1-1.9 6.7-2.9 10.8-2.9C80.9 31.8 85.3 33.6 88.6 37.1" class="a"></path>
  <path d="M141.4 35.2c4.2 2.2 7.5 5.2 9.8 9.2 2.3 3.9 3.5 8.5 3.5 13.7 0 5.2-1.2 9.8-3.5 13.7 -2.3 3.9-5.6 7-9.8 9.2 -4.2 2.2-9.1 3.3-14.6 3.3 -5.5 0-10.4-1.1-14.6-3.3 -4.2-2.2-7.5-5.2-9.8-9.2 -2.3-3.9-3.4-8.5-3.4-13.7 0-5.2 1.1-9.7 3.4-13.7 2.3-3.9 5.6-7 9.8-9.2 4.2-2.2 9.1-3.3 14.6-3.3C132.3 31.9 137.1 33 141.4 35.2M118.8 49c-2 2.3-3 5.4-3 9.2 0 3.8 1 6.9 3 9.3 2 2.3 4.7 3.5 7.9 3.5 3.3 0 6-1.2 8-3.5 2-2.3 3-5.4 3-9.3 0-3.8-1-6.8-3.1-9.2 -2-2.3-4.7-3.5-8-3.5C123.4 45.5 120.8 46.7 118.8 49" class="a"></path>
  <path d="M212.5 32.5V79.1c0 4.7-1.2 8.9-3.5 12.4 -2.3 3.6-5.6 6.3-9.7 8.2 -4.2 1.9-9 2.9-14.5 2.9 -4.3 0-8.4-0.6-12.4-1.8 -4-1.2-7.5-2.8-10.5-4.8l5.9-11.6c2.3 1.6 4.9 2.8 7.6 3.7 2.7 0.9 5.4 1.3 8.2 1.3 3.8 0 6.8-0.9 9-2.6 2.2-1.8 3.3-4.2 3.3-7.2v-5.5c-3.4 4.5-8.2 6.7-14.5 6.7 -4.2 0-8-1-11.3-3.1 -3.3-2-5.9-4.9-7.7-8.7 -1.9-3.7-2.8-8-2.8-12.9 0-4.8 0.9-9 2.7-12.7 1.8-3.7 4.3-6.5 7.6-8.5 3.3-2 7-3 11.1-3 3.1 0 6 0.6 8.6 1.7 2.5 1.2 4.7 2.9 6.4 5.1V32.5H212.5zM193 65.2c1.9-2.2 2.8-5.1 2.8-8.6 0-3.6-0.9-6.5-2.8-8.7 -1.9-2.2-4.4-3.3-7.5-3.3 -3.1 0-5.6 1.1-7.5 3.4 -1.9 2.2-2.9 5.1-2.9 8.6 0 3.5 1 6.4 2.9 8.6 1.9 2.2 4.4 3.3 7.5 3.3C188.7 68.5 191.1 67.4 193 65.2" class="a"></path>
  <path d="M233.5 11.5c1.7 1.7 2.5 3.8 2.5 6.5 0 2.6-0.8 4.7-2.5 6.4 -1.7 1.7-3.8 2.6-6.4 2.6 -2.6 0-4.7-0.8-6.4-2.5 -1.7-1.7-2.5-3.8-2.5-6.4 0-2.6 0.8-4.8 2.5-6.5 1.7-1.7 3.8-2.5 6.4-2.5C229.7 9 231.8 9.8 233.5 11.5M218.9 32.5h16.7v51.1h-16.7V32.5z" class="a"></path>
</svg>